<svg width="174" height="20" viewBox="0 0 174 20" fill="none" xmlns="http://www.w3.org/2000/svg">
<path d="M13.8663 0V20H0.5V0H13.8663ZM5.40099 0.0990102H0.59901V6.63366H5.40099V0.0990102ZM12.0347 1.83168H7.23267V6.63366H12.0347V1.83168ZM5.40099 6.73267H0.59901V13.2673H5.40099V6.73267ZM7.23267 13.2673H13.7673V8.46535H7.23267V13.2673ZM0.59901 19.901H7.13366V13.3663H0.59901V19.901ZM7.23267 19.901H13.7673V13.3663H7.23267V19.901Z" fill="#FD391A"/>
<path d="M33.7738 0V20H13.7738V0H33.7738ZM18.6748 0.0990102H13.8728V6.63366H18.6748V0.0990102ZM28.8728 6.63366H33.6748V0.0990102H28.8728V6.63366ZM20.5065 6.63366H27.0411V1.83168H20.5065V6.63366ZM18.6748 6.73267H13.8728V13.2673H18.6748V6.73267ZM20.5065 13.2673H27.0411V8.46535H20.5065V13.2673ZM31.9421 8.46535H27.1401V13.2673H31.9421V8.46535ZM13.8728 19.901H20.4075V13.3663H13.8728V19.901ZM20.5065 19.901H27.0411V13.3663H20.5065V19.901ZM27.1401 19.901H33.6748V13.3663H27.1401V19.901Z" fill="#FD391A"/>
<path d="M47.0411 0V20H33.6748V0H47.0411ZM38.5758 0.0990102H33.7738V6.63366H38.5758V0.0990102ZM45.2095 1.83168H40.4075V6.63366H45.2095V1.83168ZM38.5758 6.73267H33.7738V13.2673H38.5758V6.73267ZM45.2095 6.73267H40.4075V11.5347H45.2095V6.73267ZM33.7738 19.901H40.3085V13.3663H33.7738V19.901ZM40.4075 19.901H46.9421V13.3663H40.4075V19.901Z" fill="#FD391A"/>
<path d="M46.9486 20V0H53.6813V20H46.9486ZM51.8496 0.0990102H47.0476V6.63366H51.8496V0.0990102ZM51.8496 6.73267H47.0476V11.5347H51.8496V6.73267ZM47.0476 19.901H53.5823V13.3663H47.0476V19.901Z" fill="#FD391A"/>
<path d="M73.5758 0V20H53.5758V0H73.5758ZM58.4768 0.0990102H53.6748V6.63366H58.4768V0.0990102ZM68.6748 6.63366H73.4768V0.0990102H68.6748V6.63366ZM60.3085 6.63366H66.8431V1.83168H60.3085V6.63366ZM58.4768 6.73267H53.6748V13.2673H58.4768V6.73267ZM68.6748 13.2673H73.4768V6.73267H68.6748V13.2673ZM60.3085 13.2673H66.8431V8.46535H60.3085V13.2673ZM53.6748 19.901H60.2095V13.3663H53.6748V19.901ZM60.3085 19.901H66.8431V13.3663H60.3085V19.901ZM66.9421 19.901H73.4768V13.3663H66.9421V19.901Z" fill="#FD391A"/>
<path d="M93.4768 0V20H73.4768V0H93.4768ZM78.3778 0.0990102H73.5758V6.63366H78.3778V0.0990102ZM88.5758 6.63366H93.3778V0.0990102H88.5758V6.63366ZM80.2095 6.63366H86.7441V1.83168H80.2095V6.63366ZM78.3778 6.73267H73.5758V13.2673H78.3778V6.73267ZM80.2095 13.2673H86.7441V8.46535H80.2095V13.2673ZM91.6451 8.46535H86.8431V13.2673H91.6451V8.46535ZM73.5758 19.901H80.1104V13.3663H73.5758V19.901ZM80.2095 19.901H86.7441V13.3663H80.2095V19.901ZM86.8431 19.901H93.3778V13.3663H86.8431V19.901Z" fill="#FD391A"/>
<path d="M113.378 0V20H93.3778V0H113.378ZM98.2788 0.0990102H93.4768V6.63366H98.2788V0.0990102ZM108.477 6.63366H113.279V0.0990102H108.477V6.63366ZM100.11 6.63366H106.645V1.83168H100.11V6.63366ZM98.2788 6.73267H93.4768V13.2673H98.2788V6.73267ZM100.11 13.2673H106.645V8.46535H100.11V13.2673ZM111.546 8.46535H106.744V13.2673H111.546V8.46535ZM93.4768 19.901H100.011V13.3663H93.4768V19.901ZM100.11 19.901H106.645V13.3663H100.11V19.901ZM106.744 19.901H113.279V13.3663H106.744V19.901Z" fill="#FD391A"/>
<path d="M133.279 0V20H113.279V0H133.279ZM118.18 0.0990102H113.378V6.63366H118.18V0.0990102ZM128.378 6.63366H133.18V0.0990102H128.378V6.63366ZM120.011 6.63366H126.546V1.83168H120.011V6.63366ZM118.18 6.73267H113.378V13.2673H118.18V6.73267ZM120.011 13.2673H126.546V8.46535H120.011V13.2673ZM131.447 8.46535H126.645V13.2673H131.447V8.46535ZM113.378 19.901H119.912V13.3663H113.378V19.901ZM120.011 19.901H126.546V13.3663H120.011V19.901ZM126.645 19.901H133.18V13.3663H126.645V19.901Z" fill="#FD391A"/>
<path d="M153.18 0V20H133.18V0H153.18ZM138.081 0.0990102H133.279V6.63366H138.081V0.0990102ZM139.912 4.90099H146.447V0.0990102H139.912V4.90099ZM148.279 4.90099H153.081V0.0990102H148.279V4.90099ZM138.081 6.73267H133.279V13.2673H138.081V6.73267ZM139.912 13.2673H146.447V6.73267H139.912V13.2673ZM151.348 6.73267H146.546V13.2673H151.348V6.73267ZM133.279 19.901H139.813V13.3663H133.279V19.901ZM139.912 19.901H146.447V13.3663H139.912V19.901ZM146.546 19.901H153.081V13.3663H146.546V19.901Z" fill="#FD391A"/>
<path d="M173.081 0V20H153.081V0H173.081ZM157.982 0.0990102H153.18V6.63366H157.982V0.0990102ZM168.18 6.63366H172.982V0.0990102H168.18V6.63366ZM159.813 6.63366H166.348V1.83168H159.813V6.63366ZM157.982 6.73267H153.18V13.2673H157.982V6.73267ZM168.18 13.2673H172.982V6.73267H168.18V13.2673ZM159.813 13.2673H166.348V8.46535H159.813V13.2673ZM153.18 19.901H159.714V13.3663H153.18V19.901ZM159.813 19.901H166.348V13.3663H159.813V19.901ZM166.447 19.901H172.982V13.3663H166.447V19.901Z" fill="#FD391A"/>
</svg>
