<svg width="25" height="24" viewBox="0 0 25 24" fill="none" xmlns="http://www.w3.org/2000/svg">
<path d="M12.5 0C19.1276 0 24.5 5.3724 24.5 12C24.5 18.6276 19.1276 24 12.5 24C5.8724 24 0.5 18.6276 0.5 12C0.5 5.3724 5.8724 0 12.5 0ZM17.8304 7.2C17.3732 7.2084 16.6712 7.4484 13.2956 8.8344C10.9262 9.82358 8.56332 10.8284 6.2072 11.8488C5.6312 12.0752 5.33 12.2964 5.3036 12.5124C5.2508 12.9276 5.8556 13.056 6.6164 13.3008C7.2368 13.5 8.072 13.7328 8.5064 13.7424C8.9 13.7504 9.3392 13.5904 9.824 13.2624C13.1352 11.0544 14.8444 9.93878 14.9516 9.9156C15.0272 9.8988 15.1316 9.8772 15.2036 9.9396C15.2744 10.002 15.2672 10.1196 15.2588 10.152C15.1988 10.4052 12.0896 13.1976 11.9108 13.3812L11.8244 13.4676C11.1644 14.1192 10.4984 14.5452 11.648 15.2928C12.6872 15.9684 13.292 16.3992 14.36 17.0928C15.044 17.5344 15.5804 18.0588 16.286 17.9952C16.6112 17.9652 16.946 17.664 17.1176 16.764C17.5196 14.64 18.3116 10.0344 18.494 8.136C18.5055 7.97857 18.4986 7.82025 18.4736 7.6644C18.4588 7.53855 18.3971 7.42282 18.3008 7.3404C18.1556 7.2228 17.93 7.1988 17.8304 7.2Z" fill="#FD391A"/>
</svg>
