<svg width="25" height="24" viewBox="0 0 25 24" fill="none" xmlns="http://www.w3.org/2000/svg">
<mask id="mask0_50_279" style="mask-type:luminance" maskUnits="userSpaceOnUse" x="0" y="0" width="25" height="24">
<path d="M24.5 0H0.5V24H24.5V0Z" fill="white"/>
</mask>
<g mask="url(#mask0_50_279)">
<path d="M9.989 0.00360272L10.718 0.000602722H14.282L15.012 0.00360272L15.926 0.0136027L16.359 0.0206027L16.777 0.0316027L17.18 0.0456028L17.568 0.0616027L17.942 0.0826028L18.302 0.107603L18.647 0.137603L18.98 0.170603C20.72 0.366603 21.913 0.786605 22.813 1.68661C23.713 2.58661 24.133 3.7786 24.329 5.5196L24.363 5.8526L24.392 6.19861L24.417 6.55861L24.437 6.9316L24.462 7.5196L24.474 7.92962L24.487 8.57357L24.496 9.48857L24.5 10.4686L24.499 13.7816L24.496 14.5116L24.486 15.4256L24.479 15.8586L24.468 16.2766L24.454 16.6796L24.438 17.0676L24.417 17.4416L24.392 17.8016L24.362 18.1466L24.329 18.4796C24.133 20.2196 23.713 21.4126 22.813 22.3126C21.913 23.2126 20.721 23.6326 18.98 23.8286L18.647 23.8626L18.301 23.8916L17.941 23.9166L17.568 23.9366L16.98 23.9616L16.57 23.9736L15.926 23.9866L15.011 23.9956L14.031 23.9996L10.718 23.9986L9.98802 23.9956L9.074 23.9856L8.64102 23.9786L8.22298 23.9676L7.82 23.9536L7.432 23.9376L7.058 23.9166L6.698 23.8916L6.353 23.8616L6.02 23.8286C4.28 23.6326 3.087 23.2126 2.187 22.3126C1.287 21.4126 0.867 20.2206 0.671 18.4796L0.637 18.1466L0.608 17.8006L0.583 17.4406L0.563 17.0676L0.538 16.4796L0.526 16.0696L0.513 15.4256L0.504 14.5106L0.5 13.5306L0.501 10.2176L0.504 9.4876L0.514 8.57357L0.521 8.1406L0.532 7.72262L0.546 7.3196L0.562 6.9316L0.583 6.5576L0.608 6.1976L0.638 5.8526L0.671 5.5196C0.867 3.7796 1.287 2.58661 2.187 1.68661C3.087 0.786605 4.279 0.366603 6.02 0.170603L6.353 0.136603L6.699 0.107603L7.059 0.0826028L7.432 0.0626027L8.02003 0.0376027L8.42998 0.0256027L9.074 0.0126028L9.989 0.00360272ZM7.29 7.2996H4.55C4.68 13.5396 7.8 17.2896 13.27 17.2896H13.58V13.7196C15.59 13.9196 17.11 15.3896 17.72 17.2896H20.56C19.78 14.4496 17.73 12.8796 16.45 12.2796C17.73 11.5396 19.53 9.7396 19.96 7.2996H17.38C16.82 9.27962 15.16 11.0796 13.58 11.2496V7.2996H11V14.2196C9.40002 13.8196 7.38 11.8796 7.29 7.2996Z" fill="#FD391A"/>
</g>
</svg>
